<?xml version="1.0" standalone="no"?>
<!DOCTYPE svg PUBLIC "-//W3C//DTD SVG 20010904//EN"
 "http://www.w3.org/TR/2001/REC-SVG-20010904/DTD/svg10.dtd">
<svg version="1.0" xmlns="http://www.w3.org/2000/svg"
 width="512.000000pt" height="512.000000pt" viewBox="0 0 512.000000 512.000000"
 preserveAspectRatio="xMidYMid meet">

<g transform="translate(0.000000,512.000000) scale(0.100000,-0.100000)"
fill="#000000" stroke="none">
<path d="M2329 5106 c-242 -35 -423 -133 -524 -286 -105 -158 -148 -384 -111
-590 l11 -65 -40 -30 c-59 -45 -96 -125 -97 -207 -1 -173 98 -316 230 -335
l54 -8 23 -56 c68 -168 231 -331 395 -395 67 -26 70 -30 70 -99 l0 -62 -122
-6 c-131 -7 -245 -33 -278 -62 -26 -24 -26 -79 0 -105 24 -24 61 -25 120 -3
40 16 95 18 490 18 404 0 451 -2 505 -18 163 -50 291 -176 340 -337 12 -39 19
-107 22 -238 l6 -182 -863 0 -862 0 4 182 c6 203 20 271 78 361 52 83 34 147
-43 147 -42 0 -65 -25 -115 -126 -52 -104 -63 -162 -69 -371 l-6 -193 -173 0
-174 0 0 323 0 322 111 140 c61 77 116 138 122 136 7 -2 33 -6 59 -8 184 -20
317 181 233 352 -111 227 -454 146 -455 -108 0 -32 7 -74 15 -94 8 -19 15 -39
15 -42 0 -4 -56 -79 -125 -167 l-125 -159 0 -346 0 -346 -123 -5 c-132 -6
-166 -16 -220 -67 -46 -42 -67 -93 -67 -161 0 -66 16 -107 59 -153 49 -54 75
-62 221 -67 l135 -5 287 -333 288 -333 0 -412 c0 -234 4 -427 10 -446 18 -64
-39 -60 920 -60 959 0 902 -4 920 60 6 19 10 212 10 446 l0 412 89 103 c48 57
91 113 95 124 15 48 -44 105 -93 89 -11 -3 -62 -53 -112 -111 l-90 -104 -819
0 -819 0 -238 276 c-131 151 -239 280 -241 285 -2 5 510 9 1297 9 716 0 1301
-3 1301 -6 0 -3 -27 -37 -60 -76 -48 -55 -60 -76 -60 -103 0 -56 69 -95 110
-62 8 7 61 65 118 130 l103 117 120 0 c131 0 173 11 222 58 91 86 91 239 0
323 -69 65 -63 64 -469 67 l-371 3 -6 192 c-6 219 -17 270 -80 391 -78 150
-235 276 -402 320 -33 9 -113 19 -178 23 l-118 6 3 69 3 69 55 23 c169 68 327
226 395 395 l23 56 54 8 c131 18 231 162 230 332 -1 93 -48 187 -111 219 l-27
15 12 73 c22 125 15 288 -17 369 -10 26 -45 49 -74 49 -8 0 -26 -11 -42 -24
l-27 -24 12 -84 c16 -110 15 -180 -3 -272 -11 -63 -19 -81 -43 -101 -16 -14
-35 -38 -42 -55 -12 -28 -30 -41 -30 -21 0 21 -95 113 -157 152 -78 49 -128
72 -306 140 -182 69 -255 110 -346 195 -107 98 -170 109 -258 45 -80 -58 -128
-164 -143 -318 -5 -59 -13 -125 -16 -145 l-6 -38 -34 37 c-47 50 -58 97 -58
248 0 114 4 140 27 210 60 180 170 283 357 334 200 54 479 54 678 0 91 -24
141 -49 214 -105 65 -51 98 -55 135 -18 20 20 24 31 19 57 -8 40 -26 59 -107
113 -80 53 -172 89 -294 116 -120 26 -401 33 -536 14z m-84 -657 c89 -91 197
-152 424 -238 247 -95 340 -159 394 -274 19 -40 38 -64 61 -78 34 -20 35 -22
30 -72 -8 -79 -24 -147 -50 -206 -168 -382 -664 -476 -961 -182 -105 103 -161
228 -177 392 -6 55 -5 57 24 69 60 25 75 68 95 285 21 220 34 274 78 323 28
30 37 28 82 -19z m-447 -436 c11 -22 24 -273 14 -273 -21 0 -51 34 -70 77 -33
79 -33 153 3 188 29 30 41 31 53 8z m1577 -8 c36 -35 36 -109 3 -188 -19 -43
-49 -77 -70 -77 -4 0 -4 57 -1 128 7 166 18 188 68 137z m-1804 -743 c25 -22
31 -36 31 -67 0 -31 -6 -45 -31 -67 -40 -36 -80 -36 -120 -2 -26 21 -31 33
-31 69 0 36 5 48 31 69 40 34 80 34 120 -2z m1067 -240 l3 -52 -75 0 -76 0 0
53 0 52 73 -1 72 0 3 -52z m1671 -1156 c26 -23 28 -81 4 -108 -15 -17 -83 -18
-1751 -18 -1601 0 -1737 1 -1754 17 -39 35 -17 113 37 126 11 3 790 4 1731 3
1668 -1 1712 -1 1733 -20z m-979 -1356 l0 -360 -69 0 -70 0 -3 260 c-3 255 -3
260 -26 282 l-23 23 -579 0 -579 0 -23 -23 c-23 -22 -23 -27 -26 -282 l-3
-260 -70 0 -69 0 0 360 0 360 770 0 770 0 0 -360z m-300 -150 l0 -210 -470 0
-470 0 0 210 0 210 470 0 470 0 0 -210z"/>
</g>
</svg>
